<?xml version="1.0" encoding="UTF-8" standalone="no"?>
<!-- This is a Stata 18.0 generated SVG file (http://www.stata.com) -->

<svg version="1.1" width="7.500in" height="4.500in" viewBox="0 0 5400 3240" xmlns="http://www.w3.org/2000/svg" xmlns:xlink="http://www.w3.org/1999/xlink">
	<desc>Stata Graph - Graph</desc>
	<rect x="0" y="0" width="5400" height="3240" style="fill:#FFFFFF;stroke:none"/>
	<rect x="0.00" y="0.00" width="5400.00" height="3240.00" style="fill:#FFFFFF"/>
	<rect x="3.24" y="3.24" width="5393.52" height="3233.52" style="fill:none;stroke:#FFFFFF;stroke-width:6.48"/>
	<rect x="557.72" y="113.40" width="2829.43" height="2653.26" style="fill:#FFFFFF"/>
	<rect x="560.96" y="116.64" width="2822.95" height="2646.78" style="fill:none;stroke:#FFFFFF;stroke-width:6.48"/>
	<line x1="557.72" y1="2766.66" x2="622.52" y2="2766.66" style="stroke:#F0F0F0;stroke-width:9.72"/>
	<line x1="654.92" y1="2766.66" x2="719.72" y2="2766.66" style="stroke:#F0F0F0;stroke-width:9.72"/>
	<line x1="752.12" y1="2766.66" x2="816.92" y2="2766.66" style="stroke:#F0F0F0;stroke-width:9.72"/>
	<line x1="849.32" y1="2766.66" x2="914.12" y2="2766.66" style="stroke:#F0F0F0;stroke-width:9.72"/>
	<line x1="946.52" y1="2766.66" x2="1011.32" y2="2766.66" style="stroke:#F0F0F0;stroke-width:9.72"/>
	<line x1="1043.72" y1="2766.66" x2="1108.52" y2="2766.66" style="stroke:#F0F0F0;stroke-width:9.72"/>
	<line x1="1140.92" y1="2766.66" x2="1205.72" y2="2766.66" style="stroke:#F0F0F0;stroke-width:9.72"/>
	<line x1="1238.12" y1="2766.66" x2="1302.92" y2="2766.66" style="stroke:#F0F0F0;stroke-width:9.72"/>
	<line x1="1335.32" y1="2766.66" x2="1400.12" y2="2766.66" style="stroke:#F0F0F0;stroke-width:9.72"/>
	<line x1="1432.52" y1="2766.66" x2="1497.32" y2="2766.66" style="stroke:#F0F0F0;stroke-width:9.72"/>
	<line x1="1529.72" y1="2766.66" x2="1594.52" y2="2766.66" style="stroke:#F0F0F0;stroke-width:9.72"/>
	<line x1="1626.92" y1="2766.66" x2="1691.72" y2="2766.66" style="stroke:#F0F0F0;stroke-width:9.72"/>
	<line x1="1724.12" y1="2766.66" x2="1788.92" y2="2766.66" style="stroke:#F0F0F0;stroke-width:9.72"/>
	<line x1="1821.32" y1="2766.66" x2="1886.12" y2="2766.66" style="stroke:#F0F0F0;stroke-width:9.72"/>
	<line x1="1918.52" y1="2766.66" x2="1983.32" y2="2766.66" style="stroke:#F0F0F0;stroke-width:9.72"/>
	<line x1="2015.72" y1="2766.66" x2="2080.52" y2="2766.66" style="stroke:#F0F0F0;stroke-width:9.72"/>
	<line x1="2112.92" y1="2766.66" x2="2177.72" y2="2766.66" style="stroke:#F0F0F0;stroke-width:9.72"/>
	<line x1="2210.12" y1="2766.66" x2="2274.92" y2="2766.66" style="stroke:#F0F0F0;stroke-width:9.72"/>
	<line x1="2307.32" y1="2766.66" x2="2372.12" y2="2766.66" style="stroke:#F0F0F0;stroke-width:9.72"/>
	<line x1="2404.52" y1="2766.66" x2="2469.32" y2="2766.66" style="stroke:#F0F0F0;stroke-width:9.72"/>
	<line x1="2501.72" y1="2766.66" x2="2566.52" y2="2766.66" style="stroke:#F0F0F0;stroke-width:9.72"/>
	<line x1="2598.92" y1="2766.66" x2="2663.72" y2="2766.66" style="stroke:#F0F0F0;stroke-width:9.72"/>
	<line x1="2696.12" y1="2766.66" x2="2760.92" y2="2766.66" style="stroke:#F0F0F0;stroke-width:9.72"/>
	<line x1="2793.32" y1="2766.66" x2="2858.12" y2="2766.66" style="stroke:#F0F0F0;stroke-width:9.72"/>
	<line x1="2890.52" y1="2766.66" x2="2955.32" y2="2766.66" style="stroke:#F0F0F0;stroke-width:9.72"/>
	<line x1="2987.72" y1="2766.66" x2="3052.52" y2="2766.66" style="stroke:#F0F0F0;stroke-width:9.72"/>
	<line x1="3084.92" y1="2766.66" x2="3149.72" y2="2766.66" style="stroke:#F0F0F0;stroke-width:9.72"/>
	<line x1="3182.12" y1="2766.66" x2="3246.92" y2="2766.66" style="stroke:#F0F0F0;stroke-width:9.72"/>
	<line x1="3279.32" y1="2766.66" x2="3344.12" y2="2766.66" style="stroke:#F0F0F0;stroke-width:9.72"/>
	<line x1="3376.52" y1="2766.66" x2="3387.15" y2="2766.66" style="stroke:#F0F0F0;stroke-width:9.72"/>
	<line x1="557.72" y1="2121.19" x2="622.52" y2="2121.19" style="stroke:#F0F0F0;stroke-width:9.72"/>
	<line x1="654.92" y1="2121.19" x2="719.72" y2="2121.19" style="stroke:#F0F0F0;stroke-width:9.72"/>
	<line x1="752.12" y1="2121.19" x2="816.92" y2="2121.19" style="stroke:#F0F0F0;stroke-width:9.72"/>
	<line x1="849.32" y1="2121.19" x2="914.12" y2="2121.19" style="stroke:#F0F0F0;stroke-width:9.72"/>
	<line x1="946.52" y1="2121.19" x2="1011.32" y2="2121.19" style="stroke:#F0F0F0;stroke-width:9.72"/>
	<line x1="1043.72" y1="2121.19" x2="1108.52" y2="2121.19" style="stroke:#F0F0F0;stroke-width:9.72"/>
	<line x1="1140.92" y1="2121.19" x2="1205.72" y2="2121.19" style="stroke:#F0F0F0;stroke-width:9.72"/>
	<line x1="1238.12" y1="2121.19" x2="1302.92" y2="2121.19" style="stroke:#F0F0F0;stroke-width:9.72"/>
	<line x1="1335.32" y1="2121.19" x2="1400.12" y2="2121.19" style="stroke:#F0F0F0;stroke-width:9.72"/>
	<line x1="1432.52" y1="2121.19" x2="1497.32" y2="2121.19" style="stroke:#F0F0F0;stroke-width:9.72"/>
	<line x1="1529.72" y1="2121.19" x2="1594.52" y2="2121.19" style="stroke:#F0F0F0;stroke-width:9.72"/>
	<line x1="1626.92" y1="2121.19" x2="1691.72" y2="2121.19" style="stroke:#F0F0F0;stroke-width:9.72"/>
	<line x1="1724.12" y1="2121.19" x2="1788.92" y2="2121.19" style="stroke:#F0F0F0;stroke-width:9.72"/>
	<line x1="1821.32" y1="2121.19" x2="1886.12" y2="2121.19" style="stroke:#F0F0F0;stroke-width:9.72"/>
	<line x1="1918.52" y1="2121.19" x2="1983.32" y2="2121.19" style="stroke:#F0F0F0;stroke-width:9.72"/>
	<line x1="2015.72" y1="2121.19" x2="2080.52" y2="2121.19" style="stroke:#F0F0F0;stroke-width:9.72"/>
	<line x1="2112.92" y1="2121.19" x2="2177.72" y2="2121.19" style="stroke:#F0F0F0;stroke-width:9.72"/>
	<line x1="2210.12" y1="2121.19" x2="2274.92" y2="2121.19" style="stroke:#F0F0F0;stroke-width:9.72"/>
	<line x1="2307.32" y1="2121.19" x2="2372.12" y2="2121.19" style="stroke:#F0F0F0;stroke-width:9.72"/>
	<line x1="2404.52" y1="2121.19" x2="2469.32" y2="2121.19" style="stroke:#F0F0F0;stroke-width:9.72"/>
	<line x1="2501.72" y1="2121.19" x2="2566.52" y2="2121.19" style="stroke:#F0F0F0;stroke-width:9.72"/>
	<line x1="2598.92" y1="2121.19" x2="2663.72" y2="2121.19" style="stroke:#F0F0F0;stroke-width:9.72"/>
	<line x1="2696.12" y1="2121.19" x2="2760.92" y2="2121.19" style="stroke:#F0F0F0;stroke-width:9.72"/>
	<line x1="2793.32" y1="2121.19" x2="2858.12" y2="2121.19" style="stroke:#F0F0F0;stroke-width:9.72"/>
	<line x1="2890.52" y1="2121.19" x2="2955.32" y2="2121.19" style="stroke:#F0F0F0;stroke-width:9.72"/>
	<line x1="2987.72" y1="2121.19" x2="3052.52" y2="2121.19" style="stroke:#F0F0F0;stroke-width:9.72"/>
	<line x1="3084.92" y1="2121.19" x2="3149.72" y2="2121.19" style="stroke:#F0F0F0;stroke-width:9.72"/>
	<line x1="3182.12" y1="2121.19" x2="3246.92" y2="2121.19" style="stroke:#F0F0F0;stroke-width:9.72"/>
	<line x1="3279.32" y1="2121.19" x2="3344.12" y2="2121.19" style="stroke:#F0F0F0;stroke-width:9.72"/>
	<line x1="3376.52" y1="2121.19" x2="3387.15" y2="2121.19" style="stroke:#F0F0F0;stroke-width:9.72"/>
	<line x1="557.72" y1="1475.72" x2="622.52" y2="1475.72" style="stroke:#F0F0F0;stroke-width:9.72"/>
	<line x1="654.92" y1="1475.72" x2="719.72" y2="1475.72" style="stroke:#F0F0F0;stroke-width:9.72"/>
	<line x1="752.12" y1="1475.72" x2="816.92" y2="1475.72" style="stroke:#F0F0F0;stroke-width:9.72"/>
	<line x1="849.32" y1="1475.72" x2="914.12" y2="1475.72" style="stroke:#F0F0F0;stroke-width:9.72"/>
	<line x1="946.52" y1="1475.72" x2="1011.32" y2="1475.72" style="stroke:#F0F0F0;stroke-width:9.72"/>
	<line x1="1043.72" y1="1475.72" x2="1108.52" y2="1475.72" style="stroke:#F0F0F0;stroke-width:9.72"/>
	<line x1="1140.92" y1="1475.72" x2="1205.72" y2="1475.72" style="stroke:#F0F0F0;stroke-width:9.72"/>
	<line x1="1238.12" y1="1475.72" x2="1302.92" y2="1475.72" style="stroke:#F0F0F0;stroke-width:9.72"/>
	<line x1="1335.32" y1="1475.72" x2="1400.12" y2="1475.72" style="stroke:#F0F0F0;stroke-width:9.72"/>
	<line x1="1432.52" y1="1475.72" x2="1497.32" y2="1475.72" style="stroke:#F0F0F0;stroke-width:9.72"/>
	<line x1="1529.72" y1="1475.72" x2="1594.52" y2="1475.72" style="stroke:#F0F0F0;stroke-width:9.72"/>
	<line x1="1626.92" y1="1475.72" x2="1691.72" y2="1475.72" style="stroke:#F0F0F0;stroke-width:9.72"/>
	<line x1="1724.12" y1="1475.72" x2="1788.92" y2="1475.72" style="stroke:#F0F0F0;stroke-width:9.72"/>
	<line x1="1821.32" y1="1475.72" x2="1886.12" y2="1475.72" style="stroke:#F0F0F0;stroke-width:9.72"/>
	<line x1="1918.52" y1="1475.72" x2="1983.32" y2="1475.72" style="stroke:#F0F0F0;stroke-width:9.72"/>
	<line x1="2015.72" y1="1475.72" x2="2080.52" y2="1475.72" style="stroke:#F0F0F0;stroke-width:9.72"/>
	<line x1="2112.92" y1="1475.72" x2="2177.72" y2="1475.72" style="stroke:#F0F0F0;stroke-width:9.72"/>
	<line x1="2210.12" y1="1475.72" x2="2274.92" y2="1475.72" style="stroke:#F0F0F0;stroke-width:9.72"/>
	<line x1="2307.32" y1="1475.72" x2="2372.12" y2="1475.72" style="stroke:#F0F0F0;stroke-width:9.72"/>
	<line x1="2404.52" y1="1475.72" x2="2469.32" y2="1475.72" style="stroke:#F0F0F0;stroke-width:9.72"/>
	<line x1="2501.72" y1="1475.72" x2="2566.52" y2="1475.72" style="stroke:#F0F0F0;stroke-width:9.72"/>
	<line x1="2598.92" y1="1475.72" x2="2663.72" y2="1475.72" style="stroke:#F0F0F0;stroke-width:9.72"/>
	<line x1="2696.12" y1="1475.72" x2="2760.92" y2="1475.72" style="stroke:#F0F0F0;stroke-width:9.72"/>
	<line x1="2793.32" y1="1475.72" x2="2858.12" y2="1475.72" style="stroke:#F0F0F0;stroke-width:9.72"/>
	<line x1="2890.52" y1="1475.72" x2="2955.32" y2="1475.72" style="stroke:#F0F0F0;stroke-width:9.72"/>
	<line x1="2987.72" y1="1475.72" x2="3052.52" y2="1475.72" style="stroke:#F0F0F0;stroke-width:9.72"/>
	<line x1="3084.92" y1="1475.72" x2="3149.72" y2="1475.72" style="stroke:#F0F0F0;stroke-width:9.72"/>
	<line x1="3182.12" y1="1475.72" x2="3246.92" y2="1475.72" style="stroke:#F0F0F0;stroke-width:9.72"/>
	<line x1="3279.32" y1="1475.72" x2="3344.12" y2="1475.72" style="stroke:#F0F0F0;stroke-width:9.72"/>
	<line x1="3376.52" y1="1475.72" x2="3387.15" y2="1475.72" style="stroke:#F0F0F0;stroke-width:9.72"/>
	<line x1="557.72" y1="830.08" x2="622.52" y2="830.08" style="stroke:#F0F0F0;stroke-width:9.72"/>
	<line x1="654.92" y1="830.08" x2="719.72" y2="830.08" style="stroke:#F0F0F0;stroke-width:9.72"/>
	<line x1="752.12" y1="830.08" x2="816.92" y2="830.08" style="stroke:#F0F0F0;stroke-width:9.72"/>
	<line x1="849.32" y1="830.08" x2="914.12" y2="830.08" style="stroke:#F0F0F0;stroke-width:9.72"/>
	<line x1="946.52" y1="830.08" x2="1011.32" y2="830.08" style="stroke:#F0F0F0;stroke-width:9.72"/>
	<line x1="1043.72" y1="830.08" x2="1108.52" y2="830.08" style="stroke:#F0F0F0;stroke-width:9.72"/>
	<line x1="1140.92" y1="830.08" x2="1205.72" y2="830.08" style="stroke:#F0F0F0;stroke-width:9.72"/>
	<line x1="1238.12" y1="830.08" x2="1302.92" y2="830.08" style="stroke:#F0F0F0;stroke-width:9.72"/>
	<line x1="1335.32" y1="830.08" x2="1400.12" y2="830.08" style="stroke:#F0F0F0;stroke-width:9.72"/>
	<line x1="1432.52" y1="830.08" x2="1497.32" y2="830.08" style="stroke:#F0F0F0;stroke-width:9.72"/>
	<line x1="1529.72" y1="830.08" x2="1594.52" y2="830.08" style="stroke:#F0F0F0;stroke-width:9.72"/>
	<line x1="1626.92" y1="830.08" x2="1691.72" y2="830.08" style="stroke:#F0F0F0;stroke-width:9.72"/>
	<line x1="1724.12" y1="830.08" x2="1788.92" y2="830.08" style="stroke:#F0F0F0;stroke-width:9.72"/>
	<line x1="1821.32" y1="830.08" x2="1886.12" y2="830.08" style="stroke:#F0F0F0;stroke-width:9.72"/>
	<line x1="1918.52" y1="830.08" x2="1983.32" y2="830.08" style="stroke:#F0F0F0;stroke-width:9.72"/>
	<line x1="2015.72" y1="830.08" x2="2080.52" y2="830.08" style="stroke:#F0F0F0;stroke-width:9.72"/>
	<line x1="2112.92" y1="830.08" x2="2177.72" y2="830.08" style="stroke:#F0F0F0;stroke-width:9.72"/>
	<line x1="2210.12" y1="830.08" x2="2274.92" y2="830.08" style="stroke:#F0F0F0;stroke-width:9.72"/>
	<line x1="2307.32" y1="830.08" x2="2372.12" y2="830.08" style="stroke:#F0F0F0;stroke-width:9.72"/>
	<line x1="2404.52" y1="830.08" x2="2469.32" y2="830.08" style="stroke:#F0F0F0;stroke-width:9.72"/>
	<line x1="2501.72" y1="830.08" x2="2566.52" y2="830.08" style="stroke:#F0F0F0;stroke-width:9.72"/>
	<line x1="2598.92" y1="830.08" x2="2663.72" y2="830.08" style="stroke:#F0F0F0;stroke-width:9.72"/>
	<line x1="2696.12" y1="830.08" x2="2760.92" y2="830.08" style="stroke:#F0F0F0;stroke-width:9.72"/>
	<line x1="2793.32" y1="830.08" x2="2858.12" y2="830.08" style="stroke:#F0F0F0;stroke-width:9.72"/>
	<line x1="2890.52" y1="830.08" x2="2955.32" y2="830.08" style="stroke:#F0F0F0;stroke-width:9.72"/>
	<line x1="2987.72" y1="830.08" x2="3052.52" y2="830.08" style="stroke:#F0F0F0;stroke-width:9.72"/>
	<line x1="3084.92" y1="830.08" x2="3149.72" y2="830.08" style="stroke:#F0F0F0;stroke-width:9.72"/>
	<line x1="3182.12" y1="830.08" x2="3246.92" y2="830.08" style="stroke:#F0F0F0;stroke-width:9.72"/>
	<line x1="3279.32" y1="830.08" x2="3344.12" y2="830.08" style="stroke:#F0F0F0;stroke-width:9.72"/>
	<line x1="3376.52" y1="830.08" x2="3387.15" y2="830.08" style="stroke:#F0F0F0;stroke-width:9.72"/>
	<line x1="557.72" y1="184.61" x2="622.52" y2="184.61" style="stroke:#F0F0F0;stroke-width:9.72"/>
	<line x1="654.92" y1="184.61" x2="719.72" y2="184.61" style="stroke:#F0F0F0;stroke-width:9.72"/>
	<line x1="752.12" y1="184.61" x2="816.92" y2="184.61" style="stroke:#F0F0F0;stroke-width:9.72"/>
	<line x1="849.32" y1="184.61" x2="914.12" y2="184.61" style="stroke:#F0F0F0;stroke-width:9.72"/>
	<line x1="946.52" y1="184.61" x2="1011.32" y2="184.61" style="stroke:#F0F0F0;stroke-width:9.72"/>
	<line x1="1043.72" y1="184.61" x2="1108.52" y2="184.61" style="stroke:#F0F0F0;stroke-width:9.72"/>
	<line x1="1140.92" y1="184.61" x2="1205.72" y2="184.61" style="stroke:#F0F0F0;stroke-width:9.72"/>
	<line x1="1238.12" y1="184.61" x2="1302.92" y2="184.61" style="stroke:#F0F0F0;stroke-width:9.72"/>
	<line x1="1335.32" y1="184.61" x2="1400.12" y2="184.61" style="stroke:#F0F0F0;stroke-width:9.72"/>
	<line x1="1432.52" y1="184.61" x2="1497.32" y2="184.61" style="stroke:#F0F0F0;stroke-width:9.72"/>
	<line x1="1529.72" y1="184.61" x2="1594.52" y2="184.61" style="stroke:#F0F0F0;stroke-width:9.72"/>
	<line x1="1626.92" y1="184.61" x2="1691.72" y2="184.61" style="stroke:#F0F0F0;stroke-width:9.72"/>
	<line x1="1724.12" y1="184.61" x2="1788.92" y2="184.61" style="stroke:#F0F0F0;stroke-width:9.72"/>
	<line x1="1821.32" y1="184.61" x2="1886.12" y2="184.61" style="stroke:#F0F0F0;stroke-width:9.72"/>
	<line x1="1918.52" y1="184.61" x2="1983.32" y2="184.61" style="stroke:#F0F0F0;stroke-width:9.72"/>
	<line x1="2015.72" y1="184.61" x2="2080.52" y2="184.61" style="stroke:#F0F0F0;stroke-width:9.72"/>
	<line x1="2112.92" y1="184.61" x2="2177.72" y2="184.61" style="stroke:#F0F0F0;stroke-width:9.72"/>
	<line x1="2210.12" y1="184.61" x2="2274.92" y2="184.61" style="stroke:#F0F0F0;stroke-width:9.72"/>
	<line x1="2307.32" y1="184.61" x2="2372.12" y2="184.61" style="stroke:#F0F0F0;stroke-width:9.72"/>
	<line x1="2404.52" y1="184.61" x2="2469.32" y2="184.61" style="stroke:#F0F0F0;stroke-width:9.72"/>
	<line x1="2501.72" y1="184.61" x2="2566.52" y2="184.61" style="stroke:#F0F0F0;stroke-width:9.72"/>
	<line x1="2598.92" y1="184.61" x2="2663.72" y2="184.61" style="stroke:#F0F0F0;stroke-width:9.72"/>
	<line x1="2696.12" y1="184.61" x2="2760.92" y2="184.61" style="stroke:#F0F0F0;stroke-width:9.72"/>
	<line x1="2793.32" y1="184.61" x2="2858.12" y2="184.61" style="stroke:#F0F0F0;stroke-width:9.72"/>
	<line x1="2890.52" y1="184.61" x2="2955.32" y2="184.61" style="stroke:#F0F0F0;stroke-width:9.72"/>
	<line x1="2987.72" y1="184.61" x2="3052.52" y2="184.61" style="stroke:#F0F0F0;stroke-width:9.72"/>
	<line x1="3084.92" y1="184.61" x2="3149.72" y2="184.61" style="stroke:#F0F0F0;stroke-width:9.72"/>
	<line x1="3182.12" y1="184.61" x2="3246.92" y2="184.61" style="stroke:#F0F0F0;stroke-width:9.72"/>
	<line x1="3279.32" y1="184.61" x2="3344.12" y2="184.61" style="stroke:#F0F0F0;stroke-width:9.72"/>
	<line x1="3376.52" y1="184.61" x2="3387.15" y2="184.61" style="stroke:#F0F0F0;stroke-width:9.72"/>
	<line x1="809.16" y1="2766.66" x2="809.16" y2="2701.86" style="stroke:#F0F0F0;stroke-width:9.72"/>
	<line x1="809.16" y1="2669.46" x2="809.16" y2="2604.66" style="stroke:#F0F0F0;stroke-width:9.72"/>
	<line x1="809.16" y1="2572.26" x2="809.16" y2="2507.46" style="stroke:#F0F0F0;stroke-width:9.72"/>
	<line x1="809.16" y1="2475.06" x2="809.16" y2="2410.26" style="stroke:#F0F0F0;stroke-width:9.72"/>
	<line x1="809.16" y1="2377.86" x2="809.16" y2="2313.06" style="stroke:#F0F0F0;stroke-width:9.72"/>
	<line x1="809.16" y1="2280.66" x2="809.16" y2="2215.86" style="stroke:#F0F0F0;stroke-width:9.72"/>
	<line x1="809.16" y1="2183.46" x2="809.16" y2="2118.66" style="stroke:#F0F0F0;stroke-width:9.72"/>
	<line x1="809.16" y1="2086.26" x2="809.16" y2="2021.46" style="stroke:#F0F0F0;stroke-width:9.72"/>
	<line x1="809.16" y1="1989.06" x2="809.16" y2="1924.26" style="stroke:#F0F0F0;stroke-width:9.72"/>
	<line x1="809.16" y1="1891.86" x2="809.16" y2="1827.06" style="stroke:#F0F0F0;stroke-width:9.72"/>
	<line x1="809.16" y1="1794.66" x2="809.16" y2="1729.86" style="stroke:#F0F0F0;stroke-width:9.72"/>
	<line x1="809.16" y1="1697.46" x2="809.16" y2="1632.66" style="stroke:#F0F0F0;stroke-width:9.72"/>
	<line x1="809.16" y1="1600.26" x2="809.16" y2="1535.46" style="stroke:#F0F0F0;stroke-width:9.72"/>
	<line x1="809.16" y1="1503.06" x2="809.16" y2="1438.26" style="stroke:#F0F0F0;stroke-width:9.72"/>
	<line x1="809.16" y1="1405.86" x2="809.16" y2="1341.06" style="stroke:#F0F0F0;stroke-width:9.72"/>
	<line x1="809.16" y1="1308.66" x2="809.16" y2="1243.86" style="stroke:#F0F0F0;stroke-width:9.72"/>
	<line x1="809.16" y1="1211.46" x2="809.16" y2="1146.66" style="stroke:#F0F0F0;stroke-width:9.72"/>
	<line x1="809.16" y1="1114.26" x2="809.16" y2="1049.46" style="stroke:#F0F0F0;stroke-width:9.72"/>
	<line x1="809.16" y1="1017.06" x2="809.16" y2="952.26" style="stroke:#F0F0F0;stroke-width:9.72"/>
	<line x1="809.16" y1="919.86" x2="809.16" y2="855.06" style="stroke:#F0F0F0;stroke-width:9.72"/>
	<line x1="809.16" y1="822.66" x2="809.16" y2="757.86" style="stroke:#F0F0F0;stroke-width:9.72"/>
	<line x1="809.16" y1="725.46" x2="809.16" y2="660.66" style="stroke:#F0F0F0;stroke-width:9.72"/>
	<line x1="809.16" y1="628.26" x2="809.16" y2="563.46" style="stroke:#F0F0F0;stroke-width:9.72"/>
	<line x1="809.16" y1="531.06" x2="809.16" y2="466.26" style="stroke:#F0F0F0;stroke-width:9.72"/>
	<line x1="809.16" y1="433.86" x2="809.16" y2="369.06" style="stroke:#F0F0F0;stroke-width:9.72"/>
	<line x1="809.16" y1="336.66" x2="809.16" y2="271.86" style="stroke:#F0F0F0;stroke-width:9.72"/>
	<line x1="809.16" y1="239.46" x2="809.16" y2="174.66" style="stroke:#F0F0F0;stroke-width:9.72"/>
	<line x1="809.16" y1="142.26" x2="809.16" y2="113.40" style="stroke:#F0F0F0;stroke-width:9.72"/>
	<line x1="1435.89" y1="2766.66" x2="1435.89" y2="2701.86" style="stroke:#F0F0F0;stroke-width:9.72"/>
	<line x1="1435.89" y1="2669.46" x2="1435.89" y2="2604.66" style="stroke:#F0F0F0;stroke-width:9.72"/>
	<line x1="1435.89" y1="2572.26" x2="1435.89" y2="2507.46" style="stroke:#F0F0F0;stroke-width:9.72"/>
	<line x1="1435.89" y1="2475.06" x2="1435.89" y2="2410.26" style="stroke:#F0F0F0;stroke-width:9.72"/>
	<line x1="1435.89" y1="2377.86" x2="1435.89" y2="2313.06" style="stroke:#F0F0F0;stroke-width:9.72"/>
	<line x1="1435.89" y1="2280.66" x2="1435.89" y2="2215.86" style="stroke:#F0F0F0;stroke-width:9.72"/>
	<line x1="1435.89" y1="2183.46" x2="1435.89" y2="2118.66" style="stroke:#F0F0F0;stroke-width:9.72"/>
	<line x1="1435.89" y1="2086.26" x2="1435.89" y2="2021.46" style="stroke:#F0F0F0;stroke-width:9.72"/>
	<line x1="1435.89" y1="1989.06" x2="1435.89" y2="1924.26" style="stroke:#F0F0F0;stroke-width:9.72"/>
	<line x1="1435.89" y1="1891.86" x2="1435.89" y2="1827.06" style="stroke:#F0F0F0;stroke-width:9.72"/>
	<line x1="1435.89" y1="1794.66" x2="1435.89" y2="1729.86" style="stroke:#F0F0F0;stroke-width:9.72"/>
	<line x1="1435.89" y1="1697.46" x2="1435.89" y2="1632.66" style="stroke:#F0F0F0;stroke-width:9.72"/>
	<line x1="1435.89" y1="1600.26" x2="1435.89" y2="1535.46" style="stroke:#F0F0F0;stroke-width:9.72"/>
	<line x1="1435.89" y1="1503.06" x2="1435.89" y2="1438.26" style="stroke:#F0F0F0;stroke-width:9.72"/>
	<line x1="1435.89" y1="1405.86" x2="1435.89" y2="1341.06" style="stroke:#F0F0F0;stroke-width:9.72"/>
	<line x1="1435.89" y1="1308.66" x2="1435.89" y2="1243.86" style="stroke:#F0F0F0;stroke-width:9.72"/>
	<line x1="1435.89" y1="1211.46" x2="1435.89" y2="1146.66" style="stroke:#F0F0F0;stroke-width:9.72"/>
	<line x1="1435.89" y1="1114.26" x2="1435.89" y2="1049.46" style="stroke:#F0F0F0;stroke-width:9.72"/>
	<line x1="1435.89" y1="1017.06" x2="1435.89" y2="952.26" style="stroke:#F0F0F0;stroke-width:9.72"/>
	<line x1="1435.89" y1="919.86" x2="1435.89" y2="855.06" style="stroke:#F0F0F0;stroke-width:9.72"/>
	<line x1="1435.89" y1="822.66" x2="1435.89" y2="757.86" style="stroke:#F0F0F0;stroke-width:9.72"/>
	<line x1="1435.89" y1="725.46" x2="1435.89" y2="660.66" style="stroke:#F0F0F0;stroke-width:9.72"/>
	<line x1="1435.89" y1="628.26" x2="1435.89" y2="563.46" style="stroke:#F0F0F0;stroke-width:9.72"/>
	<line x1="1435.89" y1="531.06" x2="1435.89" y2="466.26" style="stroke:#F0F0F0;stroke-width:9.72"/>
	<line x1="1435.89" y1="433.86" x2="1435.89" y2="369.06" style="stroke:#F0F0F0;stroke-width:9.72"/>
	<line x1="1435.89" y1="336.66" x2="1435.89" y2="271.86" style="stroke:#F0F0F0;stroke-width:9.72"/>
	<line x1="1435.89" y1="239.46" x2="1435.89" y2="174.66" style="stroke:#F0F0F0;stroke-width:9.72"/>
	<line x1="1435.89" y1="142.26" x2="1435.89" y2="113.40" style="stroke:#F0F0F0;stroke-width:9.72"/>
	<line x1="2062.46" y1="2766.66" x2="2062.46" y2="2701.86" style="stroke:#F0F0F0;stroke-width:9.72"/>
	<line x1="2062.46" y1="2669.46" x2="2062.46" y2="2604.66" style="stroke:#F0F0F0;stroke-width:9.72"/>
	<line x1="2062.46" y1="2572.26" x2="2062.46" y2="2507.46" style="stroke:#F0F0F0;stroke-width:9.72"/>
	<line x1="2062.46" y1="2475.06" x2="2062.46" y2="2410.26" style="stroke:#F0F0F0;stroke-width:9.72"/>
	<line x1="2062.46" y1="2377.86" x2="2062.46" y2="2313.06" style="stroke:#F0F0F0;stroke-width:9.72"/>
	<line x1="2062.46" y1="2280.66" x2="2062.46" y2="2215.86" style="stroke:#F0F0F0;stroke-width:9.72"/>
	<line x1="2062.46" y1="2183.46" x2="2062.46" y2="2118.66" style="stroke:#F0F0F0;stroke-width:9.72"/>
	<line x1="2062.46" y1="2086.26" x2="2062.46" y2="2021.46" style="stroke:#F0F0F0;stroke-width:9.72"/>
	<line x1="2062.46" y1="1989.06" x2="2062.46" y2="1924.26" style="stroke:#F0F0F0;stroke-width:9.72"/>
	<line x1="2062.46" y1="1891.86" x2="2062.46" y2="1827.06" style="stroke:#F0F0F0;stroke-width:9.72"/>
	<line x1="2062.46" y1="1794.66" x2="2062.46" y2="1729.86" style="stroke:#F0F0F0;stroke-width:9.72"/>
	<line x1="2062.46" y1="1697.46" x2="2062.46" y2="1632.66" style="stroke:#F0F0F0;stroke-width:9.72"/>
	<line x1="2062.46" y1="1600.26" x2="2062.46" y2="1535.46" style="stroke:#F0F0F0;stroke-width:9.72"/>
	<line x1="2062.46" y1="1503.06" x2="2062.46" y2="1438.26" style="stroke:#F0F0F0;stroke-width:9.72"/>
	<line x1="2062.46" y1="1405.86" x2="2062.46" y2="1341.06" style="stroke:#F0F0F0;stroke-width:9.72"/>
	<line x1="2062.46" y1="1308.66" x2="2062.46" y2="1243.86" style="stroke:#F0F0F0;stroke-width:9.72"/>
	<line x1="2062.46" y1="1211.46" x2="2062.46" y2="1146.66" style="stroke:#F0F0F0;stroke-width:9.72"/>
	<line x1="2062.46" y1="1114.26" x2="2062.46" y2="1049.46" style="stroke:#F0F0F0;stroke-width:9.72"/>
	<line x1="2062.46" y1="1017.06" x2="2062.46" y2="952.26" style="stroke:#F0F0F0;stroke-width:9.72"/>
	<line x1="2062.46" y1="919.86" x2="2062.46" y2="855.06" style="stroke:#F0F0F0;stroke-width:9.72"/>
	<line x1="2062.46" y1="822.66" x2="2062.46" y2="757.86" style="stroke:#F0F0F0;stroke-width:9.72"/>
	<line x1="2062.46" y1="725.46" x2="2062.46" y2="660.66" style="stroke:#F0F0F0;stroke-width:9.72"/>
	<line x1="2062.46" y1="628.26" x2="2062.46" y2="563.46" style="stroke:#F0F0F0;stroke-width:9.72"/>
	<line x1="2062.46" y1="531.06" x2="2062.46" y2="466.26" style="stroke:#F0F0F0;stroke-width:9.72"/>
	<line x1="2062.46" y1="433.86" x2="2062.46" y2="369.06" style="stroke:#F0F0F0;stroke-width:9.72"/>
	<line x1="2062.46" y1="336.66" x2="2062.46" y2="271.86" style="stroke:#F0F0F0;stroke-width:9.72"/>
	<line x1="2062.46" y1="239.46" x2="2062.46" y2="174.66" style="stroke:#F0F0F0;stroke-width:9.72"/>
	<line x1="2062.46" y1="142.26" x2="2062.46" y2="113.40" style="stroke:#F0F0F0;stroke-width:9.72"/>
	<line x1="2689.20" y1="2766.66" x2="2689.20" y2="2701.86" style="stroke:#F0F0F0;stroke-width:9.72"/>
	<line x1="2689.20" y1="2669.46" x2="2689.20" y2="2604.66" style="stroke:#F0F0F0;stroke-width:9.72"/>
	<line x1="2689.20" y1="2572.26" x2="2689.20" y2="2507.46" style="stroke:#F0F0F0;stroke-width:9.72"/>
	<line x1="2689.20" y1="2475.06" x2="2689.20" y2="2410.26" style="stroke:#F0F0F0;stroke-width:9.72"/>
	<line x1="2689.20" y1="2377.86" x2="2689.20" y2="2313.06" style="stroke:#F0F0F0;stroke-width:9.72"/>
	<line x1="2689.20" y1="2280.66" x2="2689.20" y2="2215.86" style="stroke:#F0F0F0;stroke-width:9.72"/>
	<line x1="2689.20" y1="2183.46" x2="2689.20" y2="2118.66" style="stroke:#F0F0F0;stroke-width:9.72"/>
	<line x1="2689.20" y1="2086.26" x2="2689.20" y2="2021.46" style="stroke:#F0F0F0;stroke-width:9.72"/>
	<line x1="2689.20" y1="1989.06" x2="2689.20" y2="1924.26" style="stroke:#F0F0F0;stroke-width:9.72"/>
	<line x1="2689.20" y1="1891.86" x2="2689.20" y2="1827.06" style="stroke:#F0F0F0;stroke-width:9.72"/>
	<line x1="2689.20" y1="1794.66" x2="2689.20" y2="1729.86" style="stroke:#F0F0F0;stroke-width:9.72"/>
	<line x1="2689.20" y1="1697.46" x2="2689.20" y2="1632.66" style="stroke:#F0F0F0;stroke-width:9.72"/>
	<line x1="2689.20" y1="1600.26" x2="2689.20" y2="1535.46" style="stroke:#F0F0F0;stroke-width:9.72"/>
	<line x1="2689.20" y1="1503.06" x2="2689.20" y2="1438.26" style="stroke:#F0F0F0;stroke-width:9.72"/>
	<line x1="2689.20" y1="1405.86" x2="2689.20" y2="1341.06" style="stroke:#F0F0F0;stroke-width:9.72"/>
	<line x1="2689.20" y1="1308.66" x2="2689.20" y2="1243.86" style="stroke:#F0F0F0;stroke-width:9.72"/>
	<line x1="2689.20" y1="1211.46" x2="2689.20" y2="1146.66" style="stroke:#F0F0F0;stroke-width:9.72"/>
	<line x1="2689.20" y1="1114.26" x2="2689.20" y2="1049.46" style="stroke:#F0F0F0;stroke-width:9.72"/>
	<line x1="2689.20" y1="1017.06" x2="2689.20" y2="952.26" style="stroke:#F0F0F0;stroke-width:9.72"/>
	<line x1="2689.20" y1="919.86" x2="2689.20" y2="855.06" style="stroke:#F0F0F0;stroke-width:9.72"/>
	<line x1="2689.20" y1="822.66" x2="2689.20" y2="757.86" style="stroke:#F0F0F0;stroke-width:9.72"/>
	<line x1="2689.20" y1="725.46" x2="2689.20" y2="660.66" style="stroke:#F0F0F0;stroke-width:9.72"/>
	<line x1="2689.20" y1="628.26" x2="2689.20" y2="563.46" style="stroke:#F0F0F0;stroke-width:9.72"/>
	<line x1="2689.20" y1="531.06" x2="2689.20" y2="466.26" style="stroke:#F0F0F0;stroke-width:9.72"/>
	<line x1="2689.20" y1="433.86" x2="2689.20" y2="369.06" style="stroke:#F0F0F0;stroke-width:9.72"/>
	<line x1="2689.20" y1="336.66" x2="2689.20" y2="271.86" style="stroke:#F0F0F0;stroke-width:9.72"/>
	<line x1="2689.20" y1="239.46" x2="2689.20" y2="174.66" style="stroke:#F0F0F0;stroke-width:9.72"/>
	<line x1="2689.20" y1="142.26" x2="2689.20" y2="113.40" style="stroke:#F0F0F0;stroke-width:9.72"/>
	<line x1="3315.94" y1="2766.66" x2="3315.94" y2="2701.86" style="stroke:#F0F0F0;stroke-width:9.72"/>
	<line x1="3315.94" y1="2669.46" x2="3315.94" y2="2604.66" style="stroke:#F0F0F0;stroke-width:9.72"/>
	<line x1="3315.94" y1="2572.26" x2="3315.94" y2="2507.46" style="stroke:#F0F0F0;stroke-width:9.72"/>
	<line x1="3315.94" y1="2475.06" x2="3315.94" y2="2410.26" style="stroke:#F0F0F0;stroke-width:9.72"/>
	<line x1="3315.94" y1="2377.86" x2="3315.94" y2="2313.06" style="stroke:#F0F0F0;stroke-width:9.72"/>
	<line x1="3315.94" y1="2280.66" x2="3315.94" y2="2215.86" style="stroke:#F0F0F0;stroke-width:9.72"/>
	<line x1="3315.94" y1="2183.46" x2="3315.94" y2="2118.66" style="stroke:#F0F0F0;stroke-width:9.72"/>
	<line x1="3315.94" y1="2086.26" x2="3315.94" y2="2021.46" style="stroke:#F0F0F0;stroke-width:9.72"/>
	<line x1="3315.94" y1="1989.06" x2="3315.94" y2="1924.26" style="stroke:#F0F0F0;stroke-width:9.72"/>
	<line x1="3315.94" y1="1891.86" x2="3315.94" y2="1827.06" style="stroke:#F0F0F0;stroke-width:9.72"/>
	<line x1="3315.94" y1="1794.66" x2="3315.94" y2="1729.86" style="stroke:#F0F0F0;stroke-width:9.72"/>
	<line x1="3315.94" y1="1697.46" x2="3315.94" y2="1632.66" style="stroke:#F0F0F0;stroke-width:9.72"/>
	<line x1="3315.94" y1="1600.26" x2="3315.94" y2="1535.46" style="stroke:#F0F0F0;stroke-width:9.72"/>
	<line x1="3315.94" y1="1503.06" x2="3315.94" y2="1438.26" style="stroke:#F0F0F0;stroke-width:9.72"/>
	<line x1="3315.94" y1="1405.86" x2="3315.94" y2="1341.06" style="stroke:#F0F0F0;stroke-width:9.72"/>
	<line x1="3315.94" y1="1308.66" x2="3315.94" y2="1243.86" style="stroke:#F0F0F0;stroke-width:9.72"/>
	<line x1="3315.94" y1="1211.46" x2="3315.94" y2="1146.66" style="stroke:#F0F0F0;stroke-width:9.72"/>
	<line x1="3315.94" y1="1114.26" x2="3315.94" y2="1049.46" style="stroke:#F0F0F0;stroke-width:9.72"/>
	<line x1="3315.94" y1="1017.06" x2="3315.94" y2="952.26" style="stroke:#F0F0F0;stroke-width:9.72"/>
	<line x1="3315.94" y1="919.86" x2="3315.94" y2="855.06" style="stroke:#F0F0F0;stroke-width:9.72"/>
	<line x1="3315.94" y1="822.66" x2="3315.94" y2="757.86" style="stroke:#F0F0F0;stroke-width:9.72"/>
	<line x1="3315.94" y1="725.46" x2="3315.94" y2="660.66" style="stroke:#F0F0F0;stroke-width:9.72"/>
	<line x1="3315.94" y1="628.26" x2="3315.94" y2="563.46" style="stroke:#F0F0F0;stroke-width:9.72"/>
	<line x1="3315.94" y1="531.06" x2="3315.94" y2="466.26" style="stroke:#F0F0F0;stroke-width:9.72"/>
	<line x1="3315.94" y1="433.86" x2="3315.94" y2="369.06" style="stroke:#F0F0F0;stroke-width:9.72"/>
	<line x1="3315.94" y1="336.66" x2="3315.94" y2="271.86" style="stroke:#F0F0F0;stroke-width:9.72"/>
	<line x1="3315.94" y1="239.46" x2="3315.94" y2="174.66" style="stroke:#F0F0F0;stroke-width:9.72"/>
	<line x1="3315.94" y1="142.26" x2="3315.94" y2="113.40" style="stroke:#F0F0F0;stroke-width:9.72"/>
	<rect x="855.39" y="2468.81" width="452.92" height="297.84" style="fill:#FF8C19;fill-opacity:0.40"/>
	<rect x="857.82" y="2471.24" width="448.06" height="292.98" style="fill:none;stroke:#5FAAFF;stroke-width:4.86"/>
	<rect x="1308.32" y="1724.46" width="452.76" height="1042.20" style="fill:#FF8C19;fill-opacity:0.40"/>
	<rect x="1310.75" y="1726.89" width="447.90" height="1037.34" style="fill:none;stroke:#5FAAFF;stroke-width:4.86"/>
	<rect x="1761.08" y="384.58" width="452.92" height="2382.07" style="fill:#FF8C19;fill-opacity:0.40"/>
	<rect x="1763.51" y="387.01" width="448.06" height="2377.21" style="fill:none;stroke:#5FAAFF;stroke-width:4.86"/>
	<rect x="2214.00" y="2319.98" width="452.76" height="446.68" style="fill:#FF8C19;fill-opacity:0.40"/>
	<rect x="2216.43" y="2322.40" width="447.90" height="441.82" style="fill:none;stroke:#5FAAFF;stroke-width:4.86"/>
	<rect x="2666.76" y="2468.81" width="452.93" height="297.84" style="fill:#FF8C19;fill-opacity:0.40"/>
	<rect x="2669.19" y="2471.24" width="448.07" height="292.98" style="fill:none;stroke:#5FAAFF;stroke-width:4.86"/>
	<path d=" M855.39 2628.28 L862.99 2623.22 L870.58 2617.99 L878.18 2612.76 L885.60 2607.36 L893.19 2601.62 L900.79 2595.88 L908.38 2589.98 L915.98 2583.90 L923.57 2577.66 L931.16 2571.24 L938.76 2564.66 L946.18 2558.08 L953.78 2551.16 L961.37 2544.07 L968.96 2536.82 L976.56 2529.39 L984.15 2521.80 L991.74 2514.04 L999.17 2506.11 L1006.76 2497.84 L1014.36 2489.57 L1021.95 2480.96 L1029.54 2472.36 L1037.14 2463.41 L1044.73 2454.47 L1052.33 2445.19 L1059.75 2435.74 L1067.34 2425.95 L1074.94 2416.16 L1082.53 2406.21 L1090.13 2395.91 L1097.72 2385.45 L1105.31 2374.99 L1112.91 2364.19 L1120.33 2353.22 L1127.93 2341.91 L1135.52 2330.61 L1143.11 2318.96 L1150.71 2307.32 L1158.30 2295.34 L1165.89 2283.19 L1173.49 2270.87 L1180.91 2258.38 L1188.51 2245.73 L1196.10 2232.73 L1203.69 2219.74 L1211.29 2206.57 L1218.88 2193.07 L1226.47 2179.57 L1234.07 2165.91 L1241.49 2151.90 L1249.09 2137.89 L1256.68 2123.72 L1264.28 2109.21 L1271.87 2094.69 L1279.46 2080.01 L1287.06 2065.33 L1294.65 2050.31 L1302.08 2035.29 L1309.67 2020.11 L1317.26 2004.75 L1324.86 1989.23 L1332.45 1973.70 L1340.04 1958.01 L1347.64 1942.31 L1355.23 1926.45 L1362.66 1910.42 L1370.25 1894.39 L1377.84 1878.36 L1385.44 1862.16 L1393.03 1845.96 L1400.63 1829.59 L1408.22 1813.39 L1415.81 1797.02 L1423.24 1780.65 L1430.83 1764.11 L1438.43 1747.74 L1446.02 1731.21 L1453.61 1714.84 L1461.21 1698.47 L1468.80 1682.10 L1476.39 1665.56 L1483.82 1649.36 L1491.41 1632.99 L1499.01 1616.79 L1506.60 1600.59 L1514.19 1584.56 L1521.79 1568.53 L1529.38 1552.50 L1536.98 1536.81 L1544.40 1520.94 L1551.99 1505.42 L1559.59 1489.89 L1567.18 1474.71 L1574.78 1459.52 L1582.37 1444.50 L1589.96 1429.65 L1597.56 1414.97 L1604.98 1400.46 L1612.58 1386.11 L1620.17 1372.11 L1627.76 1358.10 L1635.36 1344.60 L1642.95 1331.10 L1650.54 1317.94 L1658.14 1304.94 L1665.56 1292.29 L1673.16 1279.97 L1680.75 1267.82 L1688.34 1256.01 L1695.94 1244.53 L1703.53 1233.22 L1711.13 1222.26 L1718.72 1211.63 L1726.14 1201.33 L1733.74 1191.54 L1741.33 1181.93 L1748.93 1172.64 L1756.52 1163.70 L1764.11 1155.09 L1771.71 1146.99 L1779.30 1139.06 L1786.73 1131.64 L1794.32 1124.72 L1801.91 1117.97 L1809.51 1111.72 L1817.10 1105.82 L1824.69 1100.42 L1832.29 1095.36 L1839.71 1090.63 L1847.31 1086.41 L1854.90 1082.70 L1862.49 1079.32 L1870.09 1076.29 L1877.68 1073.76 L1885.28 1071.56 L1892.87 1069.88 L1900.29 1068.69 L1907.89 1067.85 L1915.48 1067.51 L1923.08 1067.51 L1930.67 1068.02 L1938.26 1068.86 L1945.86 1070.21 L1953.45 1071.90 L1960.88 1074.09 L1968.47 1076.79 L1976.06 1079.83 L1983.66 1083.21 L1991.25 1087.09 L1998.84 1091.47 L2006.44 1096.20 L2014.03 1101.26 L2021.46 1106.83 L2029.05 1112.74 L2036.64 1119.15 L2044.24 1125.90 L2051.83 1132.99 L2059.43 1140.41 L2067.02 1148.34 L2074.61 1156.61 L2082.04 1165.22 L2089.63 1174.16 L2097.23 1183.44 L2104.82 1193.06 L2112.41 1203.19 L2120.01 1213.48 L2127.60 1224.11 L2135.19 1235.08 L2142.62 1246.39 L2150.21 1258.03 L2157.81 1269.84 L2165.40 1281.99 L2172.99 1294.48 L2180.59 1307.14 L2188.18 1320.13 L2195.78 1333.29 L2203.20 1346.79 L2210.79 1360.46 L2218.39 1374.47 L2225.98 1388.48 L2233.57 1402.82 L2241.17 1417.33 L2248.76 1432.18 L2256.36 1447.03 L2263.78 1462.05 L2271.38 1477.24 L2278.97 1492.59 L2286.56 1508.12 L2294.16 1523.64 L2301.75 1539.34 L2309.34 1555.20 L2316.94 1571.23 L2324.36 1587.26 L2331.96 1603.29 L2339.55 1619.49 L2347.14 1635.86 L2354.74 1652.06 L2362.33 1668.43 L2369.93 1684.80 L2377.52 1701.17 L2384.94 1717.71 L2392.54 1734.08 L2400.13 1750.44 L2407.73 1766.98 L2415.32 1783.35 L2422.91 1799.72 L2430.51 1816.09 L2438.10 1832.46 L2445.53 1848.66 L2453.12 1864.86 L2460.71 1881.06 L2468.31 1897.09 L2475.90 1913.12 L2483.49 1929.15 L2491.09 1945.01 L2498.68 1960.71 L2506.11 1976.40 L2513.70 1991.93 L2521.29 2007.28 L2528.89 2022.64 L2536.48 2037.83 L2544.07 2052.84 L2551.67 2067.86 L2559.26 2082.54 L2566.69 2097.23 L2574.28 2111.74 L2581.88 2126.08 L2589.47 2140.26 L2597.06 2154.26 L2604.66 2168.27 L2612.25 2181.94 L2619.68 2195.44 L2627.27 2208.77 L2634.86 2221.93 L2642.46 2234.93 L2650.05 2247.92 L2657.64 2260.57 L2665.24 2272.89 L2672.83 2285.21 L2680.26 2297.36 L2687.85 2309.34 L2695.44 2320.99 L2703.04 2332.46 L2710.63 2343.94 L2718.23 2355.07 L2725.82 2366.04 L2733.41 2376.68 L2740.84 2387.31 L2748.43 2397.77 L2756.03 2407.89 L2763.62 2417.85 L2771.21 2427.64 L2778.81 2437.26 L2786.40 2446.71 L2793.99 2455.99 L2801.42 2464.93 L2809.01 2473.88 L2816.61 2482.48 L2824.20 2490.92 L2831.79 2499.36 L2839.39 2507.46 L2846.98 2515.39 L2854.58 2523.15 L2862.00 2530.57 L2869.59 2538.00 L2877.19 2545.26 L2884.78 2552.34 L2892.38 2559.09 L2899.97 2565.84 L2907.56 2572.43 L2915.16 2578.84 L2922.58 2584.91 L2930.18 2590.99 L2937.77 2596.89 L2945.36 2602.63 L2952.96 2608.20 L2960.55 2613.60 L2968.14 2619.00 L2975.74 2624.06 L2983.16 2629.13 L2990.76 2633.85 L2998.35 2638.58 L3005.94 2643.13 L3013.54 2647.69 L3021.13 2651.91 L3028.73 2656.13 L3036.32 2660.18 L3043.74 2664.23 L3051.34 2667.94 L3058.93 2671.65 L3066.53 2675.19 L3074.12 2678.74 L3081.71 2682.11 L3089.31 2685.32 L3096.90 2688.53 L3104.33 2691.56 L3111.92 2694.43 L3119.51 2697.30" stroke-linejoin="round" style="fill:none;stroke:#000000;stroke-width:9.72"/>
	<rect x="777.77" y="2417.51" width="386.10" height="349.14" style="fill:#198DFF;fill-opacity:0.50"/>
	<rect x="780.20" y="2419.94" width="381.24" height="344.28" style="fill:none;stroke:#5FAAFF;stroke-width:4.86"/>
	<rect x="1163.87" y="2242.86" width="386.27" height="523.80" style="fill:#198DFF;fill-opacity:0.50"/>
	<rect x="1166.30" y="2245.29" width="381.41" height="518.94" style="fill:none;stroke:#5FAAFF;stroke-width:4.86"/>
	<rect x="1550.14" y="1544.57" width="386.10" height="1222.09" style="fill:#198DFF;fill-opacity:0.50"/>
	<rect x="1552.57" y="1547.00" width="381.24" height="1217.23" style="fill:none;stroke:#5FAAFF;stroke-width:4.86"/>
	<rect x="1936.24" y="1369.91" width="386.10" height="1396.74" style="fill:#198DFF;fill-opacity:0.50"/>
	<rect x="1938.67" y="1372.34" width="381.24" height="1391.88" style="fill:none;stroke:#5FAAFF;stroke-width:4.86"/>
	<rect x="2322.34" y="1020.77" width="386.27" height="1745.89" style="fill:#198DFF;fill-opacity:0.50"/>
	<rect x="2324.77" y="1023.20" width="381.41" height="1741.03" style="fill:none;stroke:#5FAAFF;stroke-width:4.86"/>
	<line x1="557.72" y1="2766.66" x2="557.72" y2="113.40" style="stroke:#000000;stroke-width:6.48"/>
	<line x1="557.72" y1="2766.66" x2="512.83" y2="2766.66" style="stroke:#000000;stroke-width:6.48"/>
	<text x="490.22" y="2806.09" style="font-family:'Helvetica';font-size:112.56px;fill:#000000" text-anchor="end">0</text>
	<line x1="557.72" y1="2121.19" x2="512.83" y2="2121.19" style="stroke:#000000;stroke-width:6.48"/>
	<text x="490.22" y="2160.62" style="font-family:'Helvetica';font-size:112.56px;fill:#000000" text-anchor="end">.01</text>
	<line x1="557.72" y1="1475.72" x2="512.83" y2="1475.72" style="stroke:#000000;stroke-width:6.48"/>
	<text x="490.22" y="1515.16" style="font-family:'Helvetica';font-size:112.56px;fill:#000000" text-anchor="end">.02</text>
	<line x1="557.72" y1="830.08" x2="512.83" y2="830.08" style="stroke:#000000;stroke-width:6.48"/>
	<text x="490.22" y="869.52" style="font-family:'Helvetica';font-size:112.56px;fill:#000000" text-anchor="end">.03</text>
	<line x1="557.72" y1="184.61" x2="512.83" y2="184.61" style="stroke:#000000;stroke-width:6.48"/>
	<text x="490.22" y="224.05" style="font-family:'Helvetica';font-size:112.56px;fill:#000000" text-anchor="end">.04</text>
	<text x="214.55" y="1439.94" style="font-family:'Helvetica';font-size:112.56px;fill:#000000" transform="rotate(-90 214.55,1439.94)" text-anchor="middle">Density</text>
	<line x1="557.72" y1="2766.66" x2="3387.15" y2="2766.66" style="stroke:#000000;stroke-width:6.48"/>
	<line x1="809.16" y1="2766.66" x2="809.16" y2="2811.54" style="stroke:#000000;stroke-width:6.48"/>
	<text x="809.16" y="2912.86" style="font-family:'Helvetica';font-size:112.56px;fill:#000000" text-anchor="middle">20</text>
	<line x1="1435.89" y1="2766.66" x2="1435.89" y2="2811.54" style="stroke:#000000;stroke-width:6.48"/>
	<text x="1435.89" y="2912.86" style="font-family:'Helvetica';font-size:112.56px;fill:#000000" text-anchor="middle">40</text>
	<line x1="2062.46" y1="2766.66" x2="2062.46" y2="2811.54" style="stroke:#000000;stroke-width:6.48"/>
	<text x="2062.46" y="2912.86" style="font-family:'Helvetica';font-size:112.56px;fill:#000000" text-anchor="middle">60</text>
	<line x1="2689.20" y1="2766.66" x2="2689.20" y2="2811.54" style="stroke:#000000;stroke-width:6.48"/>
	<text x="2689.20" y="2912.86" style="font-family:'Helvetica';font-size:112.56px;fill:#000000" text-anchor="middle">80</text>
	<line x1="3315.94" y1="2766.66" x2="3315.94" y2="2811.54" style="stroke:#000000;stroke-width:6.48"/>
	<text x="3315.94" y="2912.86" style="font-family:'Helvetica';font-size:112.56px;fill:#000000" text-anchor="middle">100</text>
	<text x="1972.52" y="3070.31" style="font-family:'Helvetica';font-size:112.56px;fill:#000000" text-anchor="middle">age</text>
	<rect x="3425.96" y="1177.71" width="1821.83" height="524.64" style="fill:#FFFFFF"/>
	<rect x="3429.20" y="1180.95" width="1815.35" height="518.16" style="fill:none;stroke:#FFFFFF;stroke-width:6.48"/>
	<rect x="3474.56" y="1226.31" width="259.20" height="112.39" style="fill:#FF8C19;fill-opacity:0.40"/>
	<rect x="3476.99" y="1228.74" width="254.34" height="107.53" style="fill:none;stroke:#5FAAFF;stroke-width:4.86"/>
	<line x1="3474.56" y1="1439.94" x2="3733.76" y2="1439.94" style="stroke:#000000;stroke-width:9.72"/>
	<rect x="3474.56" y="1541.19" width="259.20" height="112.56" style="fill:#198DFF;fill-opacity:0.50"/>
	<rect x="3476.99" y="1543.62" width="254.34" height="107.70" style="fill:none;stroke:#5FAAFF;stroke-width:4.86"/>
	<text x="3801.26" y="1321.94" style="font-family:'Helvetica';font-size:112.56px;fill:#000000">Sampled from Normal</text>
	<text x="3801.26" y="1479.38" style="font-family:'Helvetica';font-size:112.56px;fill:#000000">Theoretical Normal</text>
	<text x="3801.26" y="1636.99" style="font-family:'Helvetica';font-size:112.56px;fill:#000000">Sampled from t-distribution</text>
</svg>
